HIERARCHY
ROOT Hips
{
	OFFSET 0.000000 0.000000 0.000000
	CHANNELS 6 Xposition Yposition Zposition Zrotation Yrotation Xrotation 
	JOINT LHipJoint
	{
		OFFSET 0.000000 0.000000 0.000000
		CHANNELS 3 Zrotation Yrotation Xrotation
		JOINT LeftUpLeg
		{
			OFFSET 1.363060 -1.794630 0.839290
			CHANNELS 3 Zrotation Yrotation Xrotation
			JOINT LeftLeg
			{
				OFFSET 2.448110 -6.726130 0.000000
				CHANNELS 3 Zrotation Yrotation Xrotation
				JOINT LeftFoot
				{
					OFFSET 2.562200 -7.039590 0.000000
					CHANNELS 3 Zrotation Yrotation Xrotation
					JOINT LeftToeBase
					{
						OFFSET 0.157640 -0.433110 2.322550
						CHANNELS 3 Zrotation Yrotation Xrotation
						End Site
						{
							OFFSET 0.000000 0.000000 0.000000
						}
					}
				}
			}
		}
	}
	JOINT RHipJoint
	{
		OFFSET 0.000000 0.000000 0.000000
		CHANNELS 3 Zrotation Yrotation Xrotation
		JOINT RightUpLeg
		{
			OFFSET -1.305520 -1.794630 0.839290
			CHANNELS 3 Zrotation Yrotation Xrotation
			JOINT RightLeg
			{
				OFFSET -2.542530 -6.985550 0.000000
				CHANNELS 3 Zrotation Yrotation Xrotation
				JOINT RightFoot
				{
					OFFSET -2.568260 -7.056230 0.000000
					CHANNELS 3 Zrotation Yrotation Xrotation
					JOINT RightToeBase
					{
						OFFSET -0.164730 -0.452590 2.363150
						CHANNELS 3 Zrotation Yrotation Xrotation
						End Site
						{
							OFFSET 0.000000 0.000000 0.000000
						}
					}
				}
			}
		}
	}
	JOINT LowerBack
	{
		OFFSET 0.000000 0.000000 0.000000
		CHANNELS 3 Zrotation Yrotation Xrotation
		JOINT Spine
		{
			OFFSET 0.028270 2.035590 -0.193380
			CHANNELS 3 Zrotation Yrotation Xrotation
			JOINT Spine1
			{
				OFFSET 0.056720 2.048850 -0.042750
				CHANNELS 3 Zrotation Yrotation Xrotation
				JOINT Neck
				{
					OFFSET 0.000000 0.000000 0.000000
					CHANNELS 3 Zrotation Yrotation Xrotation
					JOINT Neck1
					{
						OFFSET -0.054170 1.746240 0.172020
						CHANNELS 3 Zrotation Yrotation Xrotation
						JOINT Head
						{
							OFFSET 0.104070 1.761360 -0.123970
							CHANNELS 3 Zrotation Yrotation Xrotation
							End Site
							{
								OFFSET 0.000000 0.000000 0.000000
							}
						}
					}
				}
				JOINT LeftShoulder
				{
					OFFSET 0.000000 0.000000 0.000000
					CHANNELS 3 Zrotation Yrotation Xrotation
					JOINT LeftArm
					{
						OFFSET 3.362410 1.200890 -0.311210
						CHANNELS 3 Zrotation Yrotation Xrotation
						JOINT LeftForeArm
						{
							OFFSET 4.983000 -0.000000 -0.000000
							CHANNELS 3 Zrotation Yrotation Xrotation
							JOINT LeftHand
							{
								OFFSET 3.483560 -0.000000 -0.000000
								CHANNELS 3 Zrotation Yrotation Xrotation
								JOINT LeftFingerBase
								{
									OFFSET 0.000000 0.000000 0.000000
									CHANNELS 3 Zrotation Yrotation Xrotation
									JOINT LeftHandIndex1
									{
										OFFSET 0.715260 -0.000000 -0.000000
										CHANNELS 3 Zrotation Yrotation Xrotation
										End Site
										{
											OFFSET 0.000000 0.000000 0.000000
										}
									}
								}
								JOINT LThumb
								{
									OFFSET 0.000000 0.000000 0.000000
									CHANNELS 3 Zrotation Yrotation Xrotation
									End Site
									{
										OFFSET 0.000000 0.000000 0.000000
									}
								}
							}
						}
					}
				}
				JOINT RightShoulder
				{
					OFFSET 0.000000 0.000000 0.000000
					CHANNELS 3 Zrotation Yrotation Xrotation
					JOINT RightArm
					{
						OFFSET -3.136600 1.374050 -0.404650
						CHANNELS 3 Zrotation Yrotation Xrotation
						JOINT RightForeArm
						{
							OFFSET -5.241900 -0.000000 -0.000000
							CHANNELS 3 Zrotation Yrotation Xrotation
							JOINT RightHand
							{
								OFFSET -3.444170 -0.000000 -0.000000
								CHANNELS 3 Zrotation Yrotation Xrotation
								JOINT RightFingerBase
								{
									OFFSET 0.000000 0.000000 0.000000
									CHANNELS 3 Zrotation Yrotation Xrotation
									JOINT RightHandIndex1
									{
										OFFSET -0.622530 -0.000000 -0.000000
										CHANNELS 3 Zrotation Yrotation Xrotation
										End Site
										{
											OFFSET 0.000000 0.000000 0.000000
										}
									}
								}
								JOINT RThumb
								{
									OFFSET 0.000000 0.000000 0.000000
									CHANNELS 3 Zrotation Yrotation Xrotation
									End Site
									{
										OFFSET 0.000000 0.000000 0.000000
									}
								}
							}
						}
					}
				}
			}
		}
	}
}
MOTION
Frames: 7
Frame Time: 0.008333
5.318544 16.254655 -31.781081 0.182877 -47.840793 6.604461 3.536833 -9.280257 -12.130531 -22.195033 -13.934074 -12.235180 -16.873871 3.122927 35.008686 -16.528539 -25.587935 19.942443 9.976009 11.407794 8.967823 5.993021 25.332195 -15.800982 -20.488772 -27.052653 15.532751 15.982198 -0.446570 12.863635 14.653833 20.646918 -5.020170 21.910517 -18.535482 -21.490699 -9.646596 -5.183012 30.474794 4.552655 -0.855971 -9.615111 2.029154 -2.572614 6.802873 0.626275 3.333535 -18.544915 4.502027 3.627496 18.096877 -20.657627 17.370494 2.233017 16.768142 3.398594 -0.561164 -93.731551 -39.677639 22.208387 -16.947370 -32.478087 26.943564 -0.225948 -19.827728 2.852142 0.000002 -0.000001 0.000002 -0.000000 0.000000 -0.000000 0.000000 0.000000 0.000000 -5.057612 -0.703470 4.646694 74.496646 21.500486 -17.325526 26.596288 20.677465 26.042093 14.747247 25.990802 7.320811 -0.000005 0.000004 -0.000002 -0.000000 -0.000000 -0.000000 0.000000 0.000000 0.000000 
5.254054 16.258408 -31.842342 0.345232 -46.489278 6.516860 3.510688 -9.502323 -12.248168 -21.750830 -12.827111 -12.906102 -16.763839 3.642506 35.464451 -17.889365 -26.755758 22.165854 10.049010 12.050128 8.619710 5.430658 25.192557 -16.043455 -19.401136 -26.902517 15.523345 15.924109 -0.898055 13.330910 12.060986 18.633201 -7.163493 21.204651 -17.184805 -21.348638 -9.344609 -5.158292 30.746888 4.428625 -0.780065 -9.571308 1.901002 -2.489249 6.946499 0.588169 3.266655 -18.682135 4.450588 3.575642 17.937605 -20.229992 16.881526 2.258304 16.876464 3.639686 -0.633717 -94.091372 -40.056424 23.118009 -16.832411 -32.991388 27.794435 0.693108 -20.756750 2.803540 0.000002 -0.000001 0.000002 0.000000 -0.000000 0.000000 0.000000 0.000000 -0.000000 -5.304870 -0.768428 4.903802 74.227548 22.332055 -17.812414 26.646702 19.994065 24.294525 14.328507 24.432716 6.916751 -0.000005 0.000004 -0.000002 0.000000 -0.000000 0.000000 0.000000 -0.000000 0.000000 
5.192973 16.268168 -31.894444 0.037743 -45.080393 7.061379 3.687055 -9.703652 -12.384549 -21.036277 -12.042059 -13.865592 -16.833871 4.147299 36.021062 -18.792797 -27.641305 23.759053 9.010071 12.082586 6.911360 4.838289 25.080610 -16.323768 -17.944024 -27.047635 15.078237 15.685066 -1.761614 13.610377 10.033549 16.660950 -8.698054 21.470939 -17.169963 -21.705635 -8.716417 -5.124126 30.929825 4.301633 -0.665759 -9.570696 2.199444 -2.374607 7.077164 0.165576 3.116996 -18.951088 4.423335 3.477718 17.722647 -19.891675 16.277540 2.548395 16.601342 3.769325 -0.832849 -94.436652 -40.491508 23.985891 -16.632552 -33.285614 28.142203 3.049517 -21.220622 2.379220 0.000002 -0.000001 0.000002 0.000000 -0.000000 0.000000 0.000000 0.000000 0.000000 -5.935235 -0.882817 4.877150 74.023591 22.995027 -18.260996 26.426941 19.233045 24.930699 13.107922 25.092502 6.778370 -0.000005 0.000004 -0.000002 0.000000 0.000000 0.000000 0.000000 -0.000000 0.000000 
5.137793 16.285135 -31.948348 0.108218 -43.746636 7.259029 3.388018 -9.950721 -12.459355 -20.045323 -11.496872 -14.716508 -17.119660 4.600015 36.493007 -19.785029 -28.014373 25.265899 7.355028 11.960464 4.277038 4.371633 24.673750 -16.460895 -16.797985 -27.120785 14.408425 15.489069 -2.192348 14.223887 8.304145 14.421591 -10.016462 21.702792 -14.342976 -23.739390 -8.314346 -5.026765 31.302588 4.191644 -0.607750 -9.623753 2.313029 -2.271969 6.669063 -0.067657 3.009429 -18.729943 4.382909 3.373807 17.533322 -19.802783 15.917791 2.924883 16.461566 3.662063 -0.939976 -94.588700 -40.569469 24.215965 -16.669187 -33.475308 28.697038 3.873782 -22.103894 2.314458 0.000002 -0.000001 0.000002 0.000000 -0.000000 -0.000000 0.000000 -0.000000 -0.000000 -6.395333 -0.638311 4.875842 73.699326 23.150676 -18.975031 26.319772 18.406021 26.890988 9.228926 26.330191 6.115400 -0.000005 0.000004 -0.000002 -0.000000 0.000000 -0.000000 0.000000 -0.000000 0.000000 
5.078814 16.306456 -31.999550 0.321319 -42.369627 7.412009 2.926453 -10.239760 -12.488024 -19.013850 -10.948251 -15.657449 -17.671090 4.589652 37.158427 -20.421952 -28.033514 26.365352 5.162416 11.696929 0.748751 3.892945 24.228322 -16.450408 -15.583384 -26.812027 13.661301 15.393813 -2.793625 14.624894 5.134940 11.909684 -11.459985 18.150518 -16.235164 -17.908126 -7.943640 -4.868956 31.621343 4.102948 -0.605801 -9.708894 1.826326 -2.117852 6.088076 0.283444 2.979993 -18.319037 4.354074 3.261276 17.399550 -19.529361 15.680878 3.168312 16.833332 3.352134 -1.036596 -94.607202 -40.485492 24.369640 -16.679799 -33.668487 29.337949 4.490288 -23.115878 2.282295 0.000002 -0.000001 0.000002 0.000000 -0.000000 0.000000 -0.000000 0.000000 -0.000000 -6.160435 -0.365901 4.963001 73.219646 23.123812 -19.130714 26.101749 17.850887 26.454318 6.393980 25.072384 5.133891 -0.000005 0.000004 -0.000002 0.000000 0.000000 -0.000000 -0.000000 0.000000 0.000000 
5.009940 16.321021 -32.064114 0.698680 -40.768616 7.360476 2.666592 -10.578785 -12.687567 -18.213603 -10.435202 -16.317616 -17.606858 5.410103 37.443451 -21.336129 -28.144961 27.110579 3.154472 10.881124 -2.177640 3.568312 24.188279 -16.570773 -15.116301 -27.199621 13.655217 15.025547 -3.839382 14.384707 2.912136 10.728602 -12.552697 16.054168 -21.383425 -12.111152 -7.852970 -4.857430 32.079470 4.023048 -0.596287 -9.760673 1.833325 -2.008719 5.579911 0.229156 2.865061 -18.024807 4.407245 3.114972 17.199253 -19.296511 15.220316 3.386353 16.951366 3.183140 -0.972431 -94.777448 -40.513319 24.378396 -16.640130 -33.667514 29.635497 5.123729 -23.629215 2.197687 0.000002 -0.000001 0.000002 -0.000000 -0.000000 0.000000 0.000000 -0.000000 -0.000000 -6.504956 -0.094047 4.812853 73.207758 22.820452 -17.934370 25.333130 18.433393 19.774867 6.180444 17.471713 3.490279 -0.000005 0.000004 -0.000002 0.000000 -0.000000 0.000000 0.000000 0.000000 -0.000000 
4.968423 16.326126 -32.111862 0.883610 -39.907390 7.273865 2.515399 -10.663535 -12.797826 -17.598864 -9.151505 -17.164912 -16.986260 6.466146 37.866852 -22.096131 -28.604984 27.492237 1.193809 10.282772 -5.283200 2.974578 24.175529 -16.839314 -14.468141 -28.281837 13.446891 14.584009 -3.444197 14.846824 1.768580 9.594861 -13.680783 15.587590 -19.534142 -12.495526 -7.654468 -5.009474 32.628332 3.814117 -0.267575 -9.734155 1.694704 -1.609425 4.917924 0.039629 2.740184 -17.578041 4.450298 2.988517 16.927704 -19.148275 14.722826 3.684990 17.005145 3.123309 -0.820780 -95.032163 -40.402976 24.084673 -16.605782 -33.560263 29.635749 4.909623 -23.599796 2.242192 0.000002 -0.000001 0.000002 0.000000 0.000000 0.000000 -0.000000 -0.000000 0.000000 -7.234771 0.411221 4.683382 73.357730 22.382295 -18.381137 25.006569 18.568005 17.723473 9.265490 16.400420 3.919689 -0.000005 0.000004 -0.000002 0.000000 0.000000 0.000000 0.000000 0.000000 0.000000 
